<?xml version="1.0" encoding="utf-8"?>
<!-- Generator: Adobe Illustrator 17.0.0, SVG Export Plug-In . SVG Version: 6.00 Build 0)  -->
<!DOCTYPE svg PUBLIC "-//W3C//DTD SVG 1.1//EN" "http://www.w3.org/Graphics/SVG/1.1/DTD/svg11.dtd">
<svg version="1.1" id="Layer_1" xmlns="http://www.w3.org/2000/svg" xmlns:xlink="http://www.w3.org/1999/xlink" x="0px" y="0px"
	 width="195px" height="35.167px" viewBox="0 0 195 35.167" enable-background="new 0 0 195 35.167" xml:space="preserve">
<g>
	<g>
		<path fill="#FF5069" d="M18.759,26.083h4.316V9.942c0,0-2.026-0.694-4.316-0.694V26.083z"/>
		<path fill="#FF5069" d="M30.968,19.023v-5.95h3.041V9.248h-3.041V4.966l-4.315-1.04v5.322h-2.027v3.826h2.027v5.917
			c0,4.609,2.615,7.583,7.552,7.06v-3.923C32.047,22.259,30.968,21.376,30.968,19.023z"/>
		<path fill="#FF5069" d="M57.556,19.402c0,2.153-0.906,3.073-2.714,3.113v-0.009c-0.091,0.005-0.175,0.007-0.26,0.009
			c-0.087-0.001-0.171-0.003-0.261-0.009v0.009c-1.808-0.04-2.715-0.96-2.715-3.113V9.928c0,0-1.942-0.694-4.315-0.694v10.134
			c0,4.527,2.303,7.079,7.291,7.079c4.764,0,7.289-2.552,7.289-7.079v-9.44c0,0-2.063-0.694-4.315-0.694V19.402z"/>
		<path fill="#FF5069" d="M108.657,18.32v1.64c-0.151,1.753-1.074,2.518-2.715,2.554v-0.009c-0.091,0.005-0.175,0.007-0.261,0.009
			c-0.086-0.001-0.171-0.003-0.261-0.009v0.009c-1.809-0.04-2.646-0.96-2.646-3.113V9.928c0,0-2.207-0.694-4.385-0.694v10.134
			c0,4.527,2.305,7.079,7.292,7.079c1.107,0,2.088-0.144,2.95-0.412v1.281c0,2.352-1.08,3.236-3.237,3.104v3.924
			c4.936,0.523,7.551-2.452,7.551-7.061v-7.187c0.015-0.236,0.026-0.476,0.026-0.726v-9.44c0,0-2.119-0.694-4.314-0.694V18.32z"/>
		<path fill="#FF5069" d="M40.065,10.985V9.907c0,0-1.527-0.659-4.12-0.659v16.835h4.316v-8.097c0-1.341,0.164-2.713,1.078-3.662
			c0.981-1.045,2.419-1.241,4.152-1.045V9.199C43.554,9.157,41.438,9.285,40.065,10.985z"/>
		<path fill="#FF5069" d="M71.112,15.525c-2.091-0.328-3.334-0.622-3.334-1.504c0-0.621,0.818-1.341,2.811-1.341
			c1.601,0,2.55,0.622,2.811,1.406h4.48c-0.556-3.171-3.434-5.263-7.291-5.263c-4.87,0-7.192,2.746-7.192,5.394
			c0,3.759,4.021,4.577,7.029,5.034c2.942,0.457,3.53,0.849,3.53,1.797c0,0.981-1.307,1.504-3.041,1.504
			c-1.274,0-3.007-0.523-3.594-1.961H62.94c0.523,3.628,3.694,5.884,7.976,5.884c4.316,0,7.389-2.353,7.389-5.688
			C78.305,17.126,75.297,16.211,71.112,15.525z"/>
		<path fill="#FF5069" d="M120.879,19.023v-5.95h3.041V9.248h-3.041V4.966c0,0-2.051-0.694-4.315-0.694v4.975h-2.026v3.826h2.026
			v5.917c0,4.609,2.615,7.583,7.552,7.06v-3.923C121.958,22.259,120.879,21.376,120.879,19.023z"/>
		<path fill="#FF5069" d="M136.806,20.679c-0.717,1.342-2.123,1.964-3.561,1.966c-2.025,0.002-3.663-1.271-4.219-3.331l12.716-0.013
			c0.614-6.669-3.51-10.522-8.479-10.518c-4.74,0.006-8.625,3.997-8.62,8.868c0.004,4.87,3.899,8.789,8.639,8.785
			c4.184-0.003,7.157-2.328,8.134-5.761L136.806,20.679z M133.234,12.575c2.06-0.001,3.695,1.24,4.221,3.201l-8.369,0.009
			C129.706,13.822,131.273,12.578,133.234,12.575z"/>
		<circle fill="#FF5069" cx="20.918" cy="5.945" r="2.509"/>
		<path fill="#FF5069" d="M88.024,8.826V8.824c-0.007,0-0.014,0.001-0.021,0.001c-0.007,0-0.015-0.001-0.022-0.001v0.002
			c-1.613,0.007-3.076,0.416-4.325,1.122v-8.32c0,0-2.021-0.694-4.326-0.694v16.665c0,0.006-0.001,0.012-0.001,0.018
			c0,0.006,0.001,0.013,0.001,0.018v0.072l0.003,0.2c0.045,4.815,3.635,8.545,8.648,8.568v0.001c0.008,0,0.016,0,0.022,0
			c0.007,0,0.015,0,0.021,0v-0.001c5.043-0.023,8.653-4.001,8.653-8.858C96.676,12.76,93.067,8.848,88.024,8.826z M88.002,22.519
			c-2.376-0.013-4.294-2.229-4.294-4.935c0-2.639,1.918-4.823,4.294-4.836c2.376,0.014,4.293,2.197,4.293,4.836
			C92.295,20.29,90.378,22.506,88.002,22.519z"/>
		<path fill="#FF5069" d="M12.858,20.396c-0.554,1.176-1.928,2.157-3.53,2.157c-2.386,0-4.314-2.19-4.314-4.838
			c0-2.713,1.928-4.936,4.314-4.936c1.57,0,2.91,0.981,3.498,2.125h4.609c-0.612-2.368-2.051-4.131-4.025-5.133
			c-0.22,0.294-0.464,0.555-0.729,0.753c-0.472,0.354-1.039,0.542-1.637,0.544c-0.088,0.009-0.177,0.015-0.267,0.015l-0.061,0
			l-0.014,0c-0.377-0.011-0.72-0.104-1.011-0.22c-0.199,0.138-0.42,0.253-0.662,0.343c-0.45,0.168-0.971,0.25-1.594,0.25
			c-0.078,0-0.161-0.001-0.245-0.004c-1.107-0.032-2.078-0.428-2.792-1.128c-2.326,1.591-3.767,4.297-3.767,7.359
			c0,4.871,3.63,8.794,8.695,8.794c4.087,0,7.16-2.256,8.14-6.08H12.858z"/>
		<path fill="#FF5069" d="M13.538,5.957c-0.102,0-2.372,0.022-3.461,0.688c-0.075-0.347-0.223-0.699-0.474-1.037
			C8.27,3.823,4.056,2.53,3.878,2.475L3.549,2.375l0,0.344C3.551,2.905,3.585,7.315,4.916,9.1c0.523,0.702,1.321,1.089,2.308,1.118
			c0.897,0.026,1.839-0.097,2.312-0.928c0.058,0.043,0.693,0.522,1.443,0.544c0.383,0.011,0.728-0.097,1.026-0.32
			c1.019-0.759,1.746-3.13,1.775-3.231l0.098-0.328L13.538,5.957z M8.418,8.835c0,0-0.015-2.3-3.901-5.459
			c4.386,1.841,4.812,4.773,4.812,4.773L8.418,8.835z M10.403,8.762L9.607,8.148c0,0,1.909-1.886,3.864-1.727
			C11.264,6.963,10.403,8.762,10.403,8.762z"/>
	</g>
</g>
<g>
	<path fill="#FF5069" d="M148.101,2.599h1.376v8.518c0,0.753-0.131,1.343-0.131,1.343h0.065c0,0,1.409-3.702,5.93-3.702
		c4.39,0,7.076,3.505,7.076,8.583c0,5.208-3.047,8.583-7.338,8.583c-4.128,0-5.668-3.702-5.668-3.702h-0.065
		c0,0,0.131,0.59,0.131,1.441v1.867h-1.376V2.599z M155.145,24.581c3.21,0,5.831-2.653,5.831-7.239c0-4.423-2.358-7.24-5.7-7.24
		c-3.014,0-5.831,2.129-5.831,7.272C149.444,21.011,151.312,24.581,155.145,24.581z"/>
	<path fill="#FF5069" d="M166.94,2.599h1.638v2.392h-1.638V2.599z M167.071,9.151h1.376v16.38h-1.376V9.151z"/>
	<path fill="#FF5069" d="M174.737,10.495h-2.162V9.25h2.162V4.598h1.376V9.25h4.291v1.245h-4.291v9.009
		c0,4.324,2.588,4.881,3.898,4.881c0.459,0,0.753-0.065,0.753-0.065v1.277c0,0-0.327,0.065-0.818,0.065
		c-1.704,0-5.209-0.622-5.209-6.061V10.495z"/>
	<path fill="#FF5069" d="M183.977,22.518c0,0,1.835,2.063,5.078,2.063c1.999,0,3.768-1.048,3.768-3.079
		c0-4.16-9.009-2.981-9.009-8.321c0-2.916,2.457-4.423,5.241-4.423c3.342,0,4.849,1.769,4.849,1.769l-0.819,1.114
		c0,0-1.343-1.54-4.128-1.54c-1.867,0-3.701,0.852-3.701,2.981c0,4.259,9.009,2.981,9.009,8.419c0,2.621-2.228,4.423-5.241,4.423
		c-3.965,0-5.93-2.359-5.93-2.359L183.977,22.518z"/>
</g>
</svg>
